<?xml version="1.0" encoding="UTF-8" standalone="no"?>
<!DOCTYPE svg PUBLIC "-//W3C//DTD SVG 1.1//EN"
 "http://www.w3.org/Graphics/SVG/1.1/DTD/svg11.dtd">
<!-- Generated by graphviz version 14.1.5 (20260411.2331)
 -->
<!-- Title: BackOfHouseWalk Pages: 1 -->
<svg width="994pt" height="672pt"
 viewBox="0.00 0.00 994.00 672.00" xmlns="http://www.w3.org/2000/svg" xmlns:xlink="http://www.w3.org/1999/xlink">
<!-- themed by studio/tools/theme-diagram.py: colors keyed to move doer -->
<rect data-theme-bg="1" x="0.00" y="0.00" width="994.00" height="672.00" fill="#0e0a06"/>
<g id="graph0" class="graph" transform="scale(1 1) rotate(0) translate(4 668)">
<title>BackOfHouseWalk</title>
<!-- start -->
<g id="node1" class="node">
<title>start</title>
<polygon fill="#1b1510" stroke="#8a7a5e" points="773.56,-664 736.22,-646 773.56,-628 810.9,-646 773.56,-664"/>
<polyline fill="none" stroke="#8a7a5e" points="747.03,-651.21 747.03,-640.79"/>
<polyline fill="none" stroke="#8a7a5e" points="762.75,-633.21 784.37,-633.21"/>
<polyline fill="none" stroke="#8a7a5e" points="800.09,-640.79 800.09,-651.21"/>
<polyline fill="none" stroke="#8a7a5e" points="784.37,-658.79 762.75,-658.79"/>
<text xml:space="preserve" text-anchor="middle" x="773.56" y="-642.4" font-family="Helvetica,sans-Serif" font-size="12.00" fill="#ece4d6">Start</text>
</g>
<!-- translate_search_prior -->
<g id="node3" class="node">
<title>translate_search_prior</title>
<ellipse fill="#2a2014" stroke="#d4a052" cx="773.56" cy="-573" rx="208.31" ry="18"/>
<text xml:space="preserve" text-anchor="middle" x="773.56" y="-569.4" font-family="Helvetica,sans-Serif" font-size="12.00" fill="#ece4d6">Translate the Basic Product Description into a search prior</text>
</g>
<!-- start&#45;&gt;translate_search_prior -->
<g id="edge1" class="edge">
<title>start&#45;&gt;translate_search_prior</title>
<path fill="none" stroke="#c9a86a" d="M773.56,-627.45C773.56,-619.97 773.56,-611.05 773.56,-602.66"/>
<polygon fill="#c9a86a" stroke="#c9a86a" points="777.06,-602.87 773.56,-592.87 770.06,-602.87 777.06,-602.87"/>
</g>
<!-- exit -->
<g id="node2" class="node">
<title>exit</title>
<polygon fill="#1b1510" stroke="#8a7a5e" points="233.56,-36 197.56,-36 197.56,0 233.56,0 233.56,-36"/>
<polyline fill="none" stroke="#8a7a5e" points="209.56,-36 197.56,-24"/>
<polyline fill="none" stroke="#8a7a5e" points="197.56,-12 209.56,0"/>
<polyline fill="none" stroke="#8a7a5e" points="221.56,0 233.56,-12"/>
<polyline fill="none" stroke="#8a7a5e" points="233.56,-24 221.56,-36"/>
<text xml:space="preserve" text-anchor="middle" x="215.56" y="-14.4" font-family="Helvetica,sans-Serif" font-size="12.00" fill="#ece4d6">Exit</text>
</g>
<!-- survey -->
<g id="node4" class="node">
<title>survey</title>
<ellipse fill="#2a2014" stroke="#d4a052" cx="609.56" cy="-500" rx="156.36" ry="18"/>
<text xml:space="preserve" text-anchor="middle" x="609.56" y="-496.4" font-family="Helvetica,sans-Serif" font-size="12.00" fill="#ece4d6">Survey the source and pick the read ladder</text>
</g>
<!-- translate_search_prior&#45;&gt;survey -->
<g id="edge2" class="edge">
<title>translate_search_prior&#45;&gt;survey</title>
<path fill="none" stroke="#c9a86a" d="M734.28,-555C711.66,-545.21 683.03,-532.81 658.9,-522.37"/>
<polygon fill="#c9a86a" stroke="#c9a86a" points="660.48,-519.23 649.91,-518.47 657.7,-525.66 660.48,-519.23"/>
</g>
<!-- acp_failed -->
<g id="node10" class="node">
<title>acp_failed</title>
<polygon fill="#16221f" stroke="#4fb8a8" points="970.7,-36 463.02,-36 332.42,0 840.1,0 970.7,-36"/>
<text xml:space="preserve" text-anchor="middle" x="651.56" y="-14.4" font-family="Helvetica,sans-Serif" font-size="12.00" fill="#ece4d6">Fail the run loudly on ACP failure, survey refusal, or FREEZE</text>
</g>
<!-- translate_search_prior&#45;&gt;acp_failed -->
<g id="edge3" class="edge">
<title>translate_search_prior&#45;&gt;acp_failed</title>
<path fill="none" stroke="#7d6f59" d="M888.61,-557.74C916.55,-547.49 938.56,-530.16 938.56,-501 938.56,-501 938.56,-501 938.56,-101 938.56,-70.75 878.87,-51.04 813.94,-38.54" stroke-dasharray="5,4"/>
<polygon fill="#7d6f59" stroke="#7d6f59" points="814.58,-35.11 804.11,-36.72 813.31,-41.99 814.58,-35.11"/>
<text xml:space="preserve" text-anchor="middle" x="962.18" y="-309" font-family="Helvetica,sans-Serif" font-size="10.00" fill="#b7a888">ACP failed</text>
</g>
<!-- pass1_events -->
<g id="node5" class="node">
<title>pass1_events</title>
<ellipse fill="#2a2014" stroke="#d4a052" cx="609.56" cy="-427" rx="162.29" ry="18"/>
<text xml:space="preserve" text-anchor="middle" x="609.56" y="-423.4" font-family="Helvetica,sans-Serif" font-size="12.00" fill="#ece4d6">Surface past&#45;tense Domain Events, time&#45;first</text>
</g>
<!-- survey&#45;&gt;pass1_events -->
<g id="edge4" class="edge">
<title>survey&#45;&gt;pass1_events</title>
<path fill="none" stroke="#c9a86a" d="M609.56,-481.82C609.56,-474.23 609.56,-465.11 609.56,-456.54"/>
<polygon fill="#c9a86a" stroke="#c9a86a" points="613.06,-456.55 609.56,-446.55 606.06,-456.55 613.06,-456.55"/>
</g>
<!-- survey&#45;&gt;acp_failed -->
<g id="edge5" class="edge">
<title>survey&#45;&gt;acp_failed</title>
<path fill="none" stroke="#7d6f59" d="M689.31,-484.12C741.31,-472.05 799.56,-452.96 799.56,-428 799.56,-428 799.56,-428 799.56,-101 799.56,-71.83 777.29,-52.95 750.02,-40.77" stroke-dasharray="5,4"/>
<polygon fill="#7d6f59" stroke="#7d6f59" points="751.35,-37.53 740.76,-36.99 748.7,-44.01 751.35,-37.53"/>
<text xml:space="preserve" text-anchor="middle" x="813.46" y="-267" font-family="Helvetica,sans-Serif" font-size="10.00" fill="#b7a888">refuse</text>
</g>
<!-- survey&#45;&gt;acp_failed -->
<g id="edge6" class="edge">
<title>survey&#45;&gt;acp_failed</title>
<path fill="none" stroke="#7d6f59" d="M724.3,-487.41C791.61,-477.3 863.56,-459.2 863.56,-428 863.56,-428 863.56,-428 863.56,-101 863.56,-74.64 805.83,-53.46 750.62,-39.24" stroke-dasharray="5,4"/>
<polygon fill="#7d6f59" stroke="#7d6f59" points="751.64,-35.89 741.09,-36.85 749.94,-42.68 751.64,-35.89"/>
<text xml:space="preserve" text-anchor="middle" x="887.18" y="-267" font-family="Helvetica,sans-Serif" font-size="10.00" fill="#b7a888">ACP failed</text>
</g>
<!-- pass2_carve -->
<g id="node6" class="node">
<title>pass2_carve</title>
<ellipse fill="#2a2014" stroke="#d4a052" cx="536.56" cy="-354" rx="173.41" ry="18"/>
<text xml:space="preserve" text-anchor="middle" x="536.56" y="-350.4" font-family="Helvetica,sans-Serif" font-size="12.00" fill="#ece4d6">Carve bounded contexts and classify each noun</text>
</g>
<!-- pass1_events&#45;&gt;pass2_carve -->
<g id="edge7" class="edge">
<title>pass1_events&#45;&gt;pass2_carve</title>
<path fill="none" stroke="#c9a86a" d="M591.89,-408.82C583.08,-400.25 572.25,-389.72 562.52,-380.25"/>
<polygon fill="#c9a86a" stroke="#c9a86a" points="565.02,-377.8 555.41,-373.33 560.13,-382.82 565.02,-377.8"/>
</g>
<!-- pass1_events&#45;&gt;acp_failed -->
<g id="edge8" class="edge">
<title>pass1_events&#45;&gt;acp_failed</title>
<path fill="none" stroke="#7d6f59" d="M685.87,-410.76C713.28,-400.46 737.56,-383.34 737.56,-355 737.56,-355 737.56,-355 737.56,-101 737.56,-76.07 718.39,-56.4 698.15,-42.59" stroke-dasharray="5,4"/>
<polygon fill="#7d6f59" stroke="#7d6f59" points="700.12,-39.69 689.81,-37.28 696.37,-45.6 700.12,-39.69"/>
<text xml:space="preserve" text-anchor="middle" x="761.18" y="-225" font-family="Helvetica,sans-Serif" font-size="10.00" fill="#b7a888">ACP failed</text>
</g>
<!-- pass3_altitude -->
<g id="node7" class="node">
<title>pass3_altitude</title>
<ellipse fill="#2a2014" stroke="#d4a052" cx="531.56" cy="-270" rx="103.28" ry="18"/>
<text xml:space="preserve" text-anchor="middle" x="531.56" y="-266.4" font-family="Helvetica,sans-Serif" font-size="12.00" fill="#ece4d6">Tag each card&#39;s C4 altitude</text>
</g>
<!-- pass2_carve&#45;&gt;pass3_altitude -->
<g id="edge9" class="edge">
<title>pass2_carve&#45;&gt;pass3_altitude</title>
<path fill="none" stroke="#c9a86a" d="M535.5,-335.61C534.86,-325.18 534.04,-311.64 533.31,-299.66"/>
<polygon fill="#c9a86a" stroke="#c9a86a" points="536.81,-299.65 532.71,-289.88 529.83,-300.07 536.81,-299.65"/>
</g>
<!-- pass2_carve&#45;&gt;acp_failed -->
<g id="edge10" class="edge">
<title>pass2_carve&#45;&gt;acp_failed</title>
<path fill="none" stroke="#7d6f59" d="M583.07,-336.31C605.14,-325.9 629.66,-310.2 643.56,-288 690.95,-212.32 672.04,-99.72 659.41,-47.5" stroke-dasharray="5,4"/>
<polygon fill="#7d6f59" stroke="#7d6f59" points="662.83,-46.74 656.98,-37.91 656.04,-48.46 662.83,-46.74"/>
<text xml:space="preserve" text-anchor="middle" x="697.58" y="-183" font-family="Helvetica,sans-Serif" font-size="10.00" fill="#b7a888">ACP failed</text>
</g>
<!-- emit_bundle -->
<g id="node8" class="node">
<title>emit_bundle</title>
<ellipse fill="#16221f" stroke="#4fb8a8" cx="414.56" cy="-186" rx="166.14" ry="18"/>
<text xml:space="preserve" text-anchor="middle" x="414.56" y="-182.4" font-family="Helvetica,sans-Serif" font-size="12.00" fill="#ece4d6">Write the bundle, reports, and sidecars to disk</text>
</g>
<!-- pass3_altitude&#45;&gt;emit_bundle -->
<g id="edge11" class="edge">
<title>pass3_altitude&#45;&gt;emit_bundle</title>
<path fill="none" stroke="#c9a86a" d="M507.6,-252.21C490.44,-240.19 467.11,-223.83 448.1,-210.51"/>
<polygon fill="#c9a86a" stroke="#c9a86a" points="450.33,-207.8 440.13,-204.92 446.31,-213.53 450.33,-207.8"/>
</g>
<!-- pass3_altitude&#45;&gt;acp_failed -->
<g id="edge12" class="edge">
<title>pass3_altitude&#45;&gt;acp_failed</title>
<path fill="none" stroke="#7d6f59" d="M550.68,-251.92C563.32,-239.69 579.38,-222.22 589.56,-204 604.5,-177.28 597.88,-166.41 609.31,-138 612.67,-129.66 615.1,-128.3 618.56,-120 628.58,-95.98 637.58,-67.76 643.64,-47.26" stroke-dasharray="5,4"/>
<polygon fill="#7d6f59" stroke="#7d6f59" points="646.93,-48.49 646.35,-37.92 640.2,-46.54 646.93,-48.49"/>
<text xml:space="preserve" text-anchor="middle" x="632.94" y="-141" font-family="Helvetica,sans-Serif" font-size="10.00" fill="#b7a888">ACP failed</text>
</g>
<!-- check_bundle -->
<g id="node9" class="node">
<title>check_bundle</title>
<ellipse fill="#2a2014" stroke="#d4a052" cx="215.56" cy="-102" rx="215.56" ry="18"/>
<text xml:space="preserve" text-anchor="middle" x="215.56" y="-98.4" font-family="Helvetica,sans-Serif" font-size="12.00" fill="#ece4d6">Cold&#45;read the bundle and decide PASS / REPAIR / FREEZE</text>
</g>
<!-- emit_bundle&#45;&gt;check_bundle -->
<g id="edge13" class="edge">
<title>emit_bundle&#45;&gt;check_bundle</title>
<path fill="none" stroke="#c9a86a" d="M360.33,-168.56C343.85,-163.12 325.8,-156.73 309.56,-150 292.14,-142.79 273.46,-133.74 257.38,-125.51"/>
<polygon fill="#c9a86a" stroke="#c9a86a" points="259.06,-122.44 248.57,-120.94 255.84,-128.65 259.06,-122.44"/>
</g>
<!-- emit_bundle&#45;&gt;acp_failed -->
<g id="edge14" class="edge">
<title>emit_bundle&#45;&gt;acp_failed</title>
<path fill="none" stroke="#7d6f59" d="M422.38,-167.57C432.97,-145.63 453.74,-107.9 481.1,-84 503.94,-64.05 533.55,-49.93 561.66,-40.07" stroke-dasharray="5,4"/>
<polygon fill="#7d6f59" stroke="#7d6f59" points="562.54,-43.47 570.91,-36.97 560.32,-36.83 562.54,-43.47"/>
<text xml:space="preserve" text-anchor="middle" x="508.33" y="-99" font-family="Helvetica,sans-Serif" font-size="10.00" fill="#b7a888">three strikes</text>
</g>
<!-- emit_bundle&#45;&gt;acp_failed -->
<g id="edge15" class="edge">
<title>emit_bundle&#45;&gt;acp_failed</title>
<path fill="none" stroke="#7d6f59" d="M452.81,-168.07C477.52,-156.28 509.76,-139.25 535.56,-120 553.64,-106.52 554.58,-99.12 571.31,-84 586.85,-69.97 604.9,-55.21 619.95,-43.31" stroke-dasharray="5,4"/>
<polygon fill="#7d6f59" stroke="#7d6f59" points="621.99,-46.17 627.69,-37.24 617.66,-40.66 621.99,-46.17"/>
<text xml:space="preserve" text-anchor="middle" x="594.94" y="-99" font-family="Helvetica,sans-Serif" font-size="10.00" fill="#b7a888">ACP failed</text>
</g>
<!-- check_bundle&#45;&gt;exit -->
<g id="edge16" class="edge">
<title>check_bundle&#45;&gt;exit</title>
<path fill="none" stroke="#c9a86a" d="M215.56,-83.61C215.56,-73.18 215.56,-59.64 215.56,-47.66"/>
<polygon fill="#c9a86a" stroke="#c9a86a" points="219.06,-47.88 215.56,-37.88 212.06,-47.88 219.06,-47.88"/>
<text xml:space="preserve" text-anchor="middle" x="228.9" y="-57" font-family="Helvetica,sans-Serif" font-size="10.00" fill="#b7a888">PASS</text>
</g>
<!-- check_bundle&#45;&gt;emit_bundle -->
<g id="edge17" class="edge">
<title>check_bundle&#45;&gt;emit_bundle</title>
<path fill="none" stroke="#7d6f59" d="M263.13,-120.04C278.07,-125.57 294.57,-131.87 309.56,-138 328.87,-145.91 349.91,-155.19 368.05,-163.41" stroke-dasharray="5,4"/>
<polygon fill="#7d6f59" stroke="#7d6f59" points="366.44,-166.52 376.99,-167.48 369.34,-160.15 366.44,-166.52"/>
<text xml:space="preserve" text-anchor="middle" x="354.34" y="-141" font-family="Helvetica,sans-Serif" font-size="10.00" fill="#b7a888">REPAIR</text>
</g>
<!-- check_bundle&#45;&gt;acp_failed -->
<g id="edge18" class="edge">
<title>check_bundle&#45;&gt;acp_failed</title>
<path fill="none" stroke="#7d6f59" d="M248.21,-83.94C269.53,-73.58 298.28,-61.03 325.11,-54 359.97,-44.88 397.51,-38.13 434.3,-33.13" stroke-dasharray="5,4"/>
<polygon fill="#7d6f59" stroke="#7d6f59" points="434.72,-36.6 444.18,-31.83 433.81,-29.66 434.72,-36.6"/>
<text xml:space="preserve" text-anchor="middle" x="344.84" y="-57" font-family="Helvetica,sans-Serif" font-size="10.00" fill="#b7a888">FREEZE</text>
</g>
<!-- check_bundle&#45;&gt;acp_failed -->
<g id="edge19" class="edge">
<title>check_bundle&#45;&gt;acp_failed</title>
<path fill="none" stroke="#7d6f59" d="M288.49,-84.63C312.75,-78.98 339.88,-72.45 364.56,-66 383.24,-61.13 387.43,-58.04 406.31,-54 434.56,-47.96 464.87,-42.68 494.21,-38.17" stroke-dasharray="5,4"/>
<polygon fill="#7d6f59" stroke="#7d6f59" points="494.54,-41.66 503.91,-36.71 493.5,-34.74 494.54,-41.66"/>
<text xml:space="preserve" text-anchor="middle" x="429.94" y="-57" font-family="Helvetica,sans-Serif" font-size="10.00" fill="#b7a888">ACP failed</text>
</g>
</g>
</svg>
